<mxfile host="app.diagrams.net" agent="Mozilla/5.0 (Windows NT 10.0; Win64; x64) AppleWebKit/537.36 (KHTML, like Gecko) Chrome/109.0.0.0 Safari/537.36" version="24.7.15">
  <diagram id="C5RBs43oDa-KdzZeNtuy" name="Page-1">
    <mxGraphModel dx="1194" dy="766" grid="1" gridSize="10" guides="1" tooltips="1" connect="1" arrows="1" fold="1" page="1" pageScale="1" pageWidth="827" pageHeight="1169" math="0" shadow="0">
      <root>
        <mxCell id="WIyWlLk6GJQsqaUBKTNV-0" />
        <mxCell id="WIyWlLk6GJQsqaUBKTNV-1" parent="WIyWlLk6GJQsqaUBKTNV-0" />
        <mxCell id="LGDl0Wr1lIjxI64IbwcY-0" value="Inicio" style="strokeWidth=2;html=1;shape=mxgraph.flowchart.start_1;whiteSpace=wrap;" vertex="1" parent="WIyWlLk6GJQsqaUBKTNV-1">
          <mxGeometry x="580" y="60" width="100" height="60" as="geometry" />
        </mxCell>
        <mxCell id="LGDl0Wr1lIjxI64IbwcY-1" value="" style="rounded=0;html=1;jettySize=auto;orthogonalLoop=1;fontSize=11;endArrow=block;endFill=0;endSize=8;strokeWidth=1;shadow=0;labelBackgroundColor=none;edgeStyle=orthogonalEdgeStyle;" edge="1" parent="WIyWlLk6GJQsqaUBKTNV-1">
          <mxGeometry relative="1" as="geometry">
            <mxPoint x="629.5" y="120" as="sourcePoint" />
            <mxPoint x="629.5" y="170" as="targetPoint" />
          </mxGeometry>
        </mxCell>
        <mxCell id="LGDl0Wr1lIjxI64IbwcY-2" value="Inicializar el nombre del usario" style="rounded=1;whiteSpace=wrap;html=1;fontSize=12;glass=0;strokeWidth=1;shadow=0;" vertex="1" parent="WIyWlLk6GJQsqaUBKTNV-1">
          <mxGeometry x="570" y="170" width="120" height="40" as="geometry" />
        </mxCell>
        <mxCell id="LGDl0Wr1lIjxI64IbwcY-3" value="" style="rounded=0;html=1;jettySize=auto;orthogonalLoop=1;fontSize=11;endArrow=block;endFill=0;endSize=8;strokeWidth=1;shadow=0;labelBackgroundColor=none;edgeStyle=orthogonalEdgeStyle;" edge="1" parent="WIyWlLk6GJQsqaUBKTNV-1">
          <mxGeometry relative="1" as="geometry">
            <mxPoint x="629.5" y="210" as="sourcePoint" />
            <mxPoint x="629.5" y="260" as="targetPoint" />
          </mxGeometry>
        </mxCell>
        <mxCell id="LGDl0Wr1lIjxI64IbwcY-4" value="Inicializar el saldo del usuario" style="rounded=1;whiteSpace=wrap;html=1;fontSize=12;glass=0;strokeWidth=1;shadow=0;" vertex="1" parent="WIyWlLk6GJQsqaUBKTNV-1">
          <mxGeometry x="570" y="260" width="120" height="40" as="geometry" />
        </mxCell>
        <mxCell id="LGDl0Wr1lIjxI64IbwcY-5" value="" style="rounded=0;html=1;jettySize=auto;orthogonalLoop=1;fontSize=11;endArrow=block;endFill=0;endSize=8;strokeWidth=1;shadow=0;labelBackgroundColor=none;edgeStyle=orthogonalEdgeStyle;" edge="1" parent="WIyWlLk6GJQsqaUBKTNV-1">
          <mxGeometry relative="1" as="geometry">
            <mxPoint x="629.5" y="300" as="sourcePoint" />
            <mxPoint x="629.5" y="350" as="targetPoint" />
          </mxGeometry>
        </mxCell>
        <mxCell id="LGDl0Wr1lIjxI64IbwcY-6" value="Inicializar el tipo de cuenta del usuario" style="rounded=1;whiteSpace=wrap;html=1;fontSize=12;glass=0;strokeWidth=1;shadow=0;" vertex="1" parent="WIyWlLk6GJQsqaUBKTNV-1">
          <mxGeometry x="570" y="350" width="120" height="40" as="geometry" />
        </mxCell>
        <mxCell id="LGDl0Wr1lIjxI64IbwcY-7" value="" style="rounded=0;html=1;jettySize=auto;orthogonalLoop=1;fontSize=11;endArrow=block;endFill=0;endSize=8;strokeWidth=1;shadow=0;labelBackgroundColor=none;edgeStyle=orthogonalEdgeStyle;" edge="1" parent="WIyWlLk6GJQsqaUBKTNV-1">
          <mxGeometry relative="1" as="geometry">
            <mxPoint x="629.5" y="390" as="sourcePoint" />
            <mxPoint x="629.5" y="440" as="targetPoint" />
          </mxGeometry>
        </mxCell>
        <mxCell id="LGDl0Wr1lIjxI64IbwcY-8" value="Mostrar en consola el menu de opciones" style="rounded=1;whiteSpace=wrap;html=1;fontSize=12;glass=0;strokeWidth=1;shadow=0;" vertex="1" parent="WIyWlLk6GJQsqaUBKTNV-1">
          <mxGeometry x="570" y="440" width="120" height="40" as="geometry" />
        </mxCell>
        <mxCell id="LGDl0Wr1lIjxI64IbwcY-9" value="" style="rounded=0;html=1;jettySize=auto;orthogonalLoop=1;fontSize=11;endArrow=block;endFill=0;endSize=8;strokeWidth=1;shadow=0;labelBackgroundColor=none;edgeStyle=orthogonalEdgeStyle;" edge="1" parent="WIyWlLk6GJQsqaUBKTNV-1">
          <mxGeometry relative="1" as="geometry">
            <mxPoint x="629.5" y="480" as="sourcePoint" />
            <mxPoint x="629.5" y="530" as="targetPoint" />
          </mxGeometry>
        </mxCell>
        <mxCell id="LGDl0Wr1lIjxI64IbwcY-10" value="Solicitar al usuario que ingrese la opcion" style="shape=parallelogram;html=1;strokeWidth=2;perimeter=parallelogramPerimeter;whiteSpace=wrap;rounded=1;arcSize=12;size=0.23;" vertex="1" parent="WIyWlLk6GJQsqaUBKTNV-1">
          <mxGeometry x="475" y="530" width="310" height="60" as="geometry" />
        </mxCell>
        <mxCell id="LGDl0Wr1lIjxI64IbwcY-11" value="" style="rounded=0;html=1;jettySize=auto;orthogonalLoop=1;fontSize=11;endArrow=block;endFill=0;endSize=8;strokeWidth=1;shadow=0;labelBackgroundColor=none;edgeStyle=orthogonalEdgeStyle;" edge="1" parent="WIyWlLk6GJQsqaUBKTNV-1">
          <mxGeometry relative="1" as="geometry">
            <mxPoint x="629.5" y="590" as="sourcePoint" />
            <mxPoint x="629.5" y="640" as="targetPoint" />
          </mxGeometry>
        </mxCell>
        <mxCell id="LGDl0Wr1lIjxI64IbwcY-12" value="Asignar la opcion ingresada a&amp;nbsp; la variable opcion" style="rounded=1;whiteSpace=wrap;html=1;fontSize=12;glass=0;strokeWidth=1;shadow=0;" vertex="1" parent="WIyWlLk6GJQsqaUBKTNV-1">
          <mxGeometry x="570" y="640" width="120" height="40" as="geometry" />
        </mxCell>
        <mxCell id="LGDl0Wr1lIjxI64IbwcY-13" value="" style="rounded=0;html=1;jettySize=auto;orthogonalLoop=1;fontSize=11;endArrow=block;endFill=0;endSize=8;strokeWidth=1;shadow=0;labelBackgroundColor=none;edgeStyle=orthogonalEdgeStyle;" edge="1" parent="WIyWlLk6GJQsqaUBKTNV-1">
          <mxGeometry relative="1" as="geometry">
            <mxPoint x="629.5" y="680" as="sourcePoint" />
            <mxPoint x="629.5" y="730" as="targetPoint" />
          </mxGeometry>
        </mxCell>
        <mxCell id="LGDl0Wr1lIjxI64IbwcY-14" value="" style="endArrow=none;html=1;rounded=0;" edge="1" parent="WIyWlLk6GJQsqaUBKTNV-1">
          <mxGeometry width="50" height="50" relative="1" as="geometry">
            <mxPoint x="310" y="730" as="sourcePoint" />
            <mxPoint x="630" y="730" as="targetPoint" />
          </mxGeometry>
        </mxCell>
        <mxCell id="LGDl0Wr1lIjxI64IbwcY-15" value="" style="endArrow=none;html=1;rounded=0;" edge="1" parent="WIyWlLk6GJQsqaUBKTNV-1">
          <mxGeometry width="50" height="50" relative="1" as="geometry">
            <mxPoint x="630" y="730" as="sourcePoint" />
            <mxPoint x="1040" y="730" as="targetPoint" />
          </mxGeometry>
        </mxCell>
        <mxCell id="LGDl0Wr1lIjxI64IbwcY-16" value="" style="rounded=0;html=1;jettySize=auto;orthogonalLoop=1;fontSize=11;endArrow=block;endFill=0;endSize=8;strokeWidth=1;shadow=0;labelBackgroundColor=none;edgeStyle=orthogonalEdgeStyle;" edge="1" parent="WIyWlLk6GJQsqaUBKTNV-1">
          <mxGeometry relative="1" as="geometry">
            <mxPoint x="310" y="730" as="sourcePoint" />
            <mxPoint x="310" y="780" as="targetPoint" />
          </mxGeometry>
        </mxCell>
        <mxCell id="LGDl0Wr1lIjxI64IbwcY-17" value="opcion == 1" style="rhombus;whiteSpace=wrap;html=1;shadow=0;fontFamily=Helvetica;fontSize=12;align=center;strokeWidth=1;spacing=6;spacingTop=-4;" vertex="1" parent="WIyWlLk6GJQsqaUBKTNV-1">
          <mxGeometry x="240" y="780" width="140" height="80" as="geometry" />
        </mxCell>
        <mxCell id="LGDl0Wr1lIjxI64IbwcY-18" value="" style="rounded=0;html=1;jettySize=auto;orthogonalLoop=1;fontSize=11;endArrow=block;endFill=0;endSize=8;strokeWidth=1;shadow=0;labelBackgroundColor=none;edgeStyle=orthogonalEdgeStyle;" edge="1" parent="WIyWlLk6GJQsqaUBKTNV-1">
          <mxGeometry relative="1" as="geometry">
            <mxPoint x="309.5" y="860" as="sourcePoint" />
            <mxPoint x="309.5" y="910" as="targetPoint" />
          </mxGeometry>
        </mxCell>
        <mxCell id="LGDl0Wr1lIjxI64IbwcY-19" value="opcion == 3" style="rhombus;whiteSpace=wrap;html=1;shadow=0;fontFamily=Helvetica;fontSize=12;align=center;strokeWidth=1;spacing=6;spacingTop=-4;" vertex="1" parent="WIyWlLk6GJQsqaUBKTNV-1">
          <mxGeometry x="440" y="780" width="140" height="80" as="geometry" />
        </mxCell>
        <mxCell id="LGDl0Wr1lIjxI64IbwcY-21" value="" style="rounded=0;html=1;jettySize=auto;orthogonalLoop=1;fontSize=11;endArrow=block;endFill=0;endSize=8;strokeWidth=1;shadow=0;labelBackgroundColor=none;edgeStyle=orthogonalEdgeStyle;" edge="1" parent="WIyWlLk6GJQsqaUBKTNV-1">
          <mxGeometry relative="1" as="geometry">
            <mxPoint x="509.5" y="730" as="sourcePoint" />
            <mxPoint x="509.5" y="780" as="targetPoint" />
          </mxGeometry>
        </mxCell>
        <mxCell id="LGDl0Wr1lIjxI64IbwcY-22" value="" style="rounded=0;html=1;jettySize=auto;orthogonalLoop=1;fontSize=11;endArrow=block;endFill=0;endSize=8;strokeWidth=1;shadow=0;labelBackgroundColor=none;edgeStyle=orthogonalEdgeStyle;" edge="1" parent="WIyWlLk6GJQsqaUBKTNV-1">
          <mxGeometry relative="1" as="geometry">
            <mxPoint x="509.5" y="860" as="sourcePoint" />
            <mxPoint x="509.5" y="910" as="targetPoint" />
          </mxGeometry>
        </mxCell>
        <mxCell id="LGDl0Wr1lIjxI64IbwcY-24" value="Mostrar en pantalla el saldo" style="strokeWidth=2;html=1;shape=mxgraph.flowchart.display;whiteSpace=wrap;" vertex="1" parent="WIyWlLk6GJQsqaUBKTNV-1">
          <mxGeometry x="240" y="910" width="130" height="70" as="geometry" />
        </mxCell>
        <mxCell id="LGDl0Wr1lIjxI64IbwcY-26" value="Solicitar el valor a depositar" style="shape=parallelogram;html=1;strokeWidth=2;perimeter=parallelogramPerimeter;whiteSpace=wrap;rounded=1;arcSize=12;size=0.23;" vertex="1" parent="WIyWlLk6GJQsqaUBKTNV-1">
          <mxGeometry x="440" y="910" width="140" height="60" as="geometry" />
        </mxCell>
        <mxCell id="LGDl0Wr1lIjxI64IbwcY-27" value="" style="rounded=0;html=1;jettySize=auto;orthogonalLoop=1;fontSize=11;endArrow=block;endFill=0;endSize=8;strokeWidth=1;shadow=0;labelBackgroundColor=none;edgeStyle=orthogonalEdgeStyle;" edge="1" parent="WIyWlLk6GJQsqaUBKTNV-1">
          <mxGeometry relative="1" as="geometry">
            <mxPoint x="509.5" y="970" as="sourcePoint" />
            <mxPoint x="509.5" y="1020" as="targetPoint" />
          </mxGeometry>
        </mxCell>
        <mxCell id="LGDl0Wr1lIjxI64IbwcY-28" value="Sumar al saldo el valor depositado" style="rounded=1;whiteSpace=wrap;html=1;fontSize=12;glass=0;strokeWidth=1;shadow=0;" vertex="1" parent="WIyWlLk6GJQsqaUBKTNV-1">
          <mxGeometry x="450" y="1020" width="120" height="40" as="geometry" />
        </mxCell>
        <mxCell id="LGDl0Wr1lIjxI64IbwcY-29" value="" style="rounded=0;html=1;jettySize=auto;orthogonalLoop=1;fontSize=11;endArrow=block;endFill=0;endSize=8;strokeWidth=1;shadow=0;labelBackgroundColor=none;edgeStyle=orthogonalEdgeStyle;" edge="1" parent="WIyWlLk6GJQsqaUBKTNV-1">
          <mxGeometry relative="1" as="geometry">
            <mxPoint x="509.5" y="1060" as="sourcePoint" />
            <mxPoint x="509.5" y="1110" as="targetPoint" />
          </mxGeometry>
        </mxCell>
        <mxCell id="LGDl0Wr1lIjxI64IbwcY-30" value="Mostrar en pantalla el saldo" style="strokeWidth=2;html=1;shape=mxgraph.flowchart.display;whiteSpace=wrap;" vertex="1" parent="WIyWlLk6GJQsqaUBKTNV-1">
          <mxGeometry x="440" y="1110" width="130" height="70" as="geometry" />
        </mxCell>
        <mxCell id="LGDl0Wr1lIjxI64IbwcY-31" value="" style="rounded=0;html=1;jettySize=auto;orthogonalLoop=1;fontSize=11;endArrow=block;endFill=0;endSize=8;strokeWidth=1;shadow=0;labelBackgroundColor=none;edgeStyle=orthogonalEdgeStyle;" edge="1" parent="WIyWlLk6GJQsqaUBKTNV-1">
          <mxGeometry relative="1" as="geometry">
            <mxPoint x="810" y="730" as="sourcePoint" />
            <mxPoint x="810" y="780" as="targetPoint" />
          </mxGeometry>
        </mxCell>
        <mxCell id="LGDl0Wr1lIjxI64IbwcY-32" value="opcion == 2" style="rhombus;whiteSpace=wrap;html=1;shadow=0;fontFamily=Helvetica;fontSize=12;align=center;strokeWidth=1;spacing=6;spacingTop=-4;" vertex="1" parent="WIyWlLk6GJQsqaUBKTNV-1">
          <mxGeometry x="740" y="780" width="140" height="80" as="geometry" />
        </mxCell>
        <mxCell id="LGDl0Wr1lIjxI64IbwcY-33" value="" style="rounded=0;html=1;jettySize=auto;orthogonalLoop=1;fontSize=11;endArrow=block;endFill=0;endSize=8;strokeWidth=1;shadow=0;labelBackgroundColor=none;edgeStyle=orthogonalEdgeStyle;" edge="1" parent="WIyWlLk6GJQsqaUBKTNV-1">
          <mxGeometry relative="1" as="geometry">
            <mxPoint x="809.5" y="860" as="sourcePoint" />
            <mxPoint x="809.5" y="910" as="targetPoint" />
          </mxGeometry>
        </mxCell>
        <mxCell id="LGDl0Wr1lIjxI64IbwcY-34" value="Solicitar el valor a&amp;nbsp;&lt;div&gt;retirar&lt;/div&gt;" style="shape=parallelogram;html=1;strokeWidth=2;perimeter=parallelogramPerimeter;whiteSpace=wrap;rounded=1;arcSize=12;size=0.23;" vertex="1" parent="WIyWlLk6GJQsqaUBKTNV-1">
          <mxGeometry x="740" y="910" width="140" height="60" as="geometry" />
        </mxCell>
        <mxCell id="LGDl0Wr1lIjxI64IbwcY-35" value="" style="rounded=0;html=1;jettySize=auto;orthogonalLoop=1;fontSize=11;endArrow=block;endFill=0;endSize=8;strokeWidth=1;shadow=0;labelBackgroundColor=none;edgeStyle=orthogonalEdgeStyle;" edge="1" parent="WIyWlLk6GJQsqaUBKTNV-1">
          <mxGeometry relative="1" as="geometry">
            <mxPoint x="809.5" y="970" as="sourcePoint" />
            <mxPoint x="809.5" y="1020" as="targetPoint" />
          </mxGeometry>
        </mxCell>
        <mxCell id="LGDl0Wr1lIjxI64IbwcY-36" value="valorRetiro &amp;gt; saldo" style="rhombus;whiteSpace=wrap;html=1;shadow=0;fontFamily=Helvetica;fontSize=12;align=center;strokeWidth=1;spacing=6;spacingTop=-4;" vertex="1" parent="WIyWlLk6GJQsqaUBKTNV-1">
          <mxGeometry x="740" y="1020" width="140" height="80" as="geometry" />
        </mxCell>
        <mxCell id="LGDl0Wr1lIjxI64IbwcY-41" value="" style="endArrow=classic;html=1;rounded=0;" edge="1" parent="WIyWlLk6GJQsqaUBKTNV-1">
          <mxGeometry width="50" height="50" relative="1" as="geometry">
            <mxPoint x="880" y="1060" as="sourcePoint" />
            <mxPoint x="930" y="1060" as="targetPoint" />
          </mxGeometry>
        </mxCell>
        <mxCell id="LGDl0Wr1lIjxI64IbwcY-42" value="" style="endArrow=classic;html=1;rounded=0;" edge="1" parent="WIyWlLk6GJQsqaUBKTNV-1">
          <mxGeometry width="50" height="50" relative="1" as="geometry">
            <mxPoint x="809.5" y="1100" as="sourcePoint" />
            <mxPoint x="809.5" y="1140" as="targetPoint" />
          </mxGeometry>
        </mxCell>
        <mxCell id="LGDl0Wr1lIjxI64IbwcY-43" value="Restar al saldo el valor ingresado" style="rounded=1;whiteSpace=wrap;html=1;fontSize=12;glass=0;strokeWidth=1;shadow=0;" vertex="1" parent="WIyWlLk6GJQsqaUBKTNV-1">
          <mxGeometry x="930" y="1040" width="120" height="40" as="geometry" />
        </mxCell>
        <mxCell id="LGDl0Wr1lIjxI64IbwcY-44" value="Mostrar en pantalla que no se puede realizar&lt;div&gt;la accion&lt;/div&gt;" style="strokeWidth=2;html=1;shape=mxgraph.flowchart.display;whiteSpace=wrap;" vertex="1" parent="WIyWlLk6GJQsqaUBKTNV-1">
          <mxGeometry x="730" y="1140" width="130" height="70" as="geometry" />
        </mxCell>
        <mxCell id="LGDl0Wr1lIjxI64IbwcY-45" value="" style="endArrow=none;html=1;rounded=0;entryX=0.5;entryY=1;entryDx=0;entryDy=0;entryPerimeter=0;" edge="1" parent="WIyWlLk6GJQsqaUBKTNV-1" target="LGDl0Wr1lIjxI64IbwcY-24">
          <mxGeometry width="50" height="50" relative="1" as="geometry">
            <mxPoint x="305" y="1300" as="sourcePoint" />
            <mxPoint x="320" y="1120" as="targetPoint" />
          </mxGeometry>
        </mxCell>
        <mxCell id="LGDl0Wr1lIjxI64IbwcY-46" value="" style="endArrow=none;html=1;rounded=0;entryX=0.5;entryY=1;entryDx=0;entryDy=0;entryPerimeter=0;" edge="1" parent="WIyWlLk6GJQsqaUBKTNV-1" target="LGDl0Wr1lIjxI64IbwcY-30">
          <mxGeometry width="50" height="50" relative="1" as="geometry">
            <mxPoint x="505" y="1300" as="sourcePoint" />
            <mxPoint x="660" y="1200" as="targetPoint" />
          </mxGeometry>
        </mxCell>
        <mxCell id="LGDl0Wr1lIjxI64IbwcY-47" value="" style="endArrow=none;html=1;rounded=0;entryX=0.577;entryY=1.043;entryDx=0;entryDy=0;entryPerimeter=0;" edge="1" parent="WIyWlLk6GJQsqaUBKTNV-1" target="LGDl0Wr1lIjxI64IbwcY-44">
          <mxGeometry width="50" height="50" relative="1" as="geometry">
            <mxPoint x="805" y="1300" as="sourcePoint" />
            <mxPoint x="660" y="1200" as="targetPoint" />
          </mxGeometry>
        </mxCell>
        <mxCell id="LGDl0Wr1lIjxI64IbwcY-48" value="" style="endArrow=none;html=1;rounded=0;entryX=0.5;entryY=1;entryDx=0;entryDy=0;" edge="1" parent="WIyWlLk6GJQsqaUBKTNV-1" target="LGDl0Wr1lIjxI64IbwcY-43">
          <mxGeometry width="50" height="50" relative="1" as="geometry">
            <mxPoint x="990" y="1300" as="sourcePoint" />
            <mxPoint x="660" y="1200" as="targetPoint" />
          </mxGeometry>
        </mxCell>
        <mxCell id="LGDl0Wr1lIjxI64IbwcY-49" value="" style="endArrow=none;html=1;rounded=0;" edge="1" parent="WIyWlLk6GJQsqaUBKTNV-1">
          <mxGeometry width="50" height="50" relative="1" as="geometry">
            <mxPoint x="310" y="1300" as="sourcePoint" />
            <mxPoint x="990" y="1300" as="targetPoint" />
          </mxGeometry>
        </mxCell>
        <mxCell id="LGDl0Wr1lIjxI64IbwcY-50" value="" style="endArrow=classic;html=1;rounded=0;" edge="1" parent="WIyWlLk6GJQsqaUBKTNV-1">
          <mxGeometry width="50" height="50" relative="1" as="geometry">
            <mxPoint x="660" y="1300" as="sourcePoint" />
            <mxPoint x="630" y="410" as="targetPoint" />
            <Array as="points">
              <mxPoint x="660" y="1400" />
              <mxPoint x="110" y="1400" />
              <mxPoint x="120" y="410" />
            </Array>
          </mxGeometry>
        </mxCell>
        <mxCell id="LGDl0Wr1lIjxI64IbwcY-51" value="opcion == 9" style="rhombus;whiteSpace=wrap;html=1;shadow=0;fontFamily=Helvetica;fontSize=12;align=center;strokeWidth=1;spacing=6;spacingTop=-4;" vertex="1" parent="WIyWlLk6GJQsqaUBKTNV-1">
          <mxGeometry x="970" y="780" width="140" height="80" as="geometry" />
        </mxCell>
        <mxCell id="LGDl0Wr1lIjxI64IbwcY-52" value="" style="rounded=0;html=1;jettySize=auto;orthogonalLoop=1;fontSize=11;endArrow=block;endFill=0;endSize=8;strokeWidth=1;shadow=0;labelBackgroundColor=none;edgeStyle=orthogonalEdgeStyle;" edge="1" parent="WIyWlLk6GJQsqaUBKTNV-1">
          <mxGeometry relative="1" as="geometry">
            <mxPoint x="1039.5" y="730" as="sourcePoint" />
            <mxPoint x="1039.5" y="780" as="targetPoint" />
          </mxGeometry>
        </mxCell>
        <mxCell id="LGDl0Wr1lIjxI64IbwcY-53" value="" style="rounded=0;html=1;jettySize=auto;orthogonalLoop=1;fontSize=11;endArrow=block;endFill=0;endSize=8;strokeWidth=1;shadow=0;labelBackgroundColor=none;edgeStyle=orthogonalEdgeStyle;" edge="1" parent="WIyWlLk6GJQsqaUBKTNV-1">
          <mxGeometry relative="1" as="geometry">
            <mxPoint x="1039.5" y="860" as="sourcePoint" />
            <mxPoint x="1039.5" y="910" as="targetPoint" />
          </mxGeometry>
        </mxCell>
        <mxCell id="LGDl0Wr1lIjxI64IbwcY-54" value="Fin" style="strokeWidth=2;html=1;shape=mxgraph.flowchart.start_1;whiteSpace=wrap;" vertex="1" parent="WIyWlLk6GJQsqaUBKTNV-1">
          <mxGeometry x="990" y="910" width="100" height="60" as="geometry" />
        </mxCell>
      </root>
    </mxGraphModel>
  </diagram>
</mxfile>
